<?xml version="1.0" standalone="no"?>
<!DOCTYPE svg PUBLIC "-//W3C//DTD SVG 20010904//EN"
 "http://www.w3.org/TR/2001/REC-SVG-20010904/DTD/svg10.dtd">
<svg version="1.0" xmlns="http://www.w3.org/2000/svg"
 width="300.000000pt" height="300.000000pt" viewBox="0 0 300.000000 300.000000"
 preserveAspectRatio="xMidYMid meet">
<metadata>
Created by potrace 1.10, written by Peter Selinger 2001-2011
</metadata>
<g transform="translate(0.000000,300.000000) scale(0.050000,-0.050000)"
fill="#ffffff" stroke="none">
<path d="M1390 4801 c-63 -28 -117 -46 -158 -54 -22 -4 -51 -18 -65 -30 -15
-12 -40 -16 -57 -10 -16 7 -30 3 -30 -8 0 -10 -7 -18 -15 -17 -35 6 -58 -5
-113 -52 -32 -28 -67 -50 -78 -50 -10 0 -8 -13 6 -30 21 -25 18 -30 -13 -32
-20 0 -27 -5 -14 -11 15 -6 18 -29 9 -63 -7 -30 -3 -94 11 -144 13 -49 26 -81
28 -70 2 11 6 29 8 40 3 11 6 36 8 55 2 19 19 35 38 35 30 1 31 3 5 20 -22 14
-23 19 -4 20 15 0 21 8 15 18 -17 27 33 39 74 18 20 -10 34 -11 33 -2 -7 44 5
50 33 15 18 -22 27 -29 20 -16 -14 29 7 87 32 87 11 0 14 -9 7 -20 -7 -11 -1
-20 14 -20 16 0 18 -6 6 -15 -58 -43 19 -321 82 -297 16 6 23 -4 18 -29 -4
-21 5 -51 21 -67 16 -16 29 -41 29 -56 0 -14 21 -71 47 -126 25 -55 42 -113
37 -128 -5 -17 0 -22 13 -14 14 9 18 3 11 -17 -7 -17 -3 -31 9 -31 12 0 17
-13 10 -30 -6 -16 -2 -30 10 -30 12 0 17 -13 10 -30 -6 -16 -2 -30 9 -30 11 0
19 -11 19 -25 -3 -67 7 -96 27 -84 15 10 18 0 9 -28 -8 -25 -5 -43 7 -43 11 0
16 -13 9 -30 -6 -16 -3 -30 7 -30 11 0 18 -30 17 -68 -2 -47 5 -64 24 -57 16
6 21 -1 14 -20 -6 -17 2 -43 19 -60 17 -17 25 -36 18 -42 -6 -7 -1 -24 11 -39
12 -15 18 -32 13 -38 -6 -5 21 -94 60 -198 38 -103 70 -198 70 -210 0 -12 14
-50 31 -84 17 -35 33 -83 34 -108 2 -26 8 -50 14 -56 22 -20 80 -205 70 -222
-6 -10 -3 -18 8 -18 17 0 50 -97 44 -130 -1 -5 11 -41 27 -78 16 -38 24 -73
19 -79 -6 -5 -1 -26 9 -46 11 -20 25 -67 30 -103 6 -36 20 -78 32 -92 12 -14
16 -32 8 -39 -7 -7 7 -13 31 -13 24 0 43 -10 43 -22 0 -12 20 -50 44 -84 24
-33 32 -54 18 -45 -16 10 -13 -4 8 -36 18 -28 28 -61 21 -72 -8 -12 1 -21 18
-21 17 0 31 -8 31 -17 0 -66 482 -77 948 -21 100 12 238 20 306 19 140 -3 303
36 262 62 -19 12 -17 16 9 17 19 0 35 14 35 31 0 17 9 26 20 19 12 -7 34 19
51 58 50 121 329 949 337 1002 2 11 8 29 15 40 6 11 28 70 47 130 19 61 41
119 47 130 7 11 14 34 17 52 4 27 189 596 220 678 76 199 293 845 300 895 6
36 17 65 25 65 9 0 15 38 15 85 -1 47 5 105 14 130 11 34 7 45 -17 45 -18 0
-54 14 -81 32 -50 32 -124 41 -490 58 -115 5 -257 16 -314 26 -57 9 -99 9 -94
0 6 -9 -11 -8 -38 2 -26 10 -60 11 -75 1 -16 -10 -38 -8 -53 4 -45 38 -321
-43 -294 -86 6 -9 2 -17 -8 -17 -10 0 -30 -40 -44 -90 -27 -96 -79 -170 -119
-170 -15 0 -20 -13 -14 -31 7 -17 -5 -44 -26 -63 -29 -25 -34 -42 -19 -69 13
-26 13 -37 -3 -37 -13 0 -20 -27 -16 -65 3 -36 -1 -75 -8 -87 -8 -12 -20 -59
-27 -105 -7 -46 -20 -83 -28 -83 -9 0 -21 -38 -28 -85 -7 -47 -29 -110 -49
-140 l-36 -55 -38 45 c-41 47 -89 188 -131 381 -14 64 -32 120 -41 126 -10 6
-17 25 -17 42 0 17 -20 50 -45 74 -25 23 -67 92 -93 152 -99 232 -84 166 108
-480 80 -269 175 -596 211 -725 58 -207 99 -293 99 -207 0 16 90 333 201 705
110 372 219 738 241 812 l40 135 594 -1 c600 0 671 -8 649 -74 -5 -14 1 -25
13 -25 12 0 22 -10 22 -21 0 -12 -10 -15 -23 -7 -16 10 -20 0 -12 -30 14 -53
-41 -286 -73 -307 -12 -8 -16 -15 -9 -15 8 0 -22 -104 -65 -232 -43 -128 -72
-242 -65 -254 9 -13 1 -16 -19 -8 -22 8 -29 3 -22 -15 6 -15 1 -33 -11 -40
-12 -8 -17 -21 -12 -30 6 -9 -16 -87 -47 -173 -32 -87 -61 -180 -65 -208 -4
-27 -12 -54 -18 -60 -6 -5 -40 -95 -75 -200 -35 -104 -81 -243 -103 -307 -22
-65 -36 -126 -30 -135 6 -10 2 -18 -8 -18 -11 0 -23 -20 -27 -45 -4 -25 -17
-43 -29 -41 -13 3 -19 -11 -14 -30 5 -19 -37 -167 -93 -330 -55 -163 -96 -305
-89 -315 6 -10 3 -19 -7 -19 -10 0 -39 -61 -64 -135 -25 -74 -53 -145 -62
-157 -10 -12 -11 -29 -3 -38 8 -9 0 -11 -18 -5 -22 8 -31 1 -30 -21 2 -18 -6
-34 -17 -35 -11 -1 -33 -8 -50 -16 -16 -7 -329 -15 -694 -18 l-664 -5 -394
1180 c-217 649 -470 1401 -562 1670 -92 270 -170 496 -172 503 -6 18 -41 17
641 17 l615 0 66 -62 66 -62 -14 57 c-25 108 -126 146 -388 147 -93 1 -206 9
-250 19 -116 26 -613 43 -660 22z"/>
<path d="M3167 4665 c7 -11 -1 -26 -18 -33 -22 -8 -28 -25 -18 -55 11 -33 7
-40 -17 -31 -18 6 -36 -1 -42 -19 -9 -23 -2 -26 31 -16 36 11 41 7 32 -29 -15
-55 -11 -54 45 23 26 36 33 53 15 39 -28 -23 -30 -21 -21 15 6 23 20 47 32 54
11 7 14 4 7 -8 -12 -20 66 -52 84 -34 6 5 -2 9 -16 9 -21 0 -21 6 -1 30 20 25
19 30 -8 33 -50 3 -60 6 -90 25 -18 12 -24 11 -15 -3z"/>
<path d="M1730 4547 c-208 -49 -264 -194 -154 -400 12 -23 51 -130 85 -239 35
-109 75 -225 89 -258 55 -130 588 -1741 630 -1906 74 -290 278 -340 1110 -275
44 4 124 9 177 13 57 3 101 17 107 32 6 14 23 26 39 26 16 0 24 9 17 20 -7 11
-2 20 11 20 13 0 18 14 11 31 -6 17 -3 26 7 20 10 -7 24 -3 31 9 7 11 4 20 -7
20 -11 0 -15 18 -9 40 6 22 25 40 43 40 29 1 29 3 3 20 -24 16 -25 23 -4 37
15 9 29 30 31 45 3 15 16 48 30 73 13 25 16 45 6 45 -34 0 0 80 34 82 20 1 23
5 9 11 -19 8 -17 22 7 58 17 27 25 49 17 49 -8 0 -3 14 12 32 14 18 24 58 22
90 -4 44 4 58 31 58 30 1 31 3 5 20 -24 16 -25 23 -4 37 15 9 29 30 31 45 3
15 16 48 30 73 13 25 16 45 6 45 -34 0 0 80 34 81 26 1 24 6 -7 19 -36 15 -17
29 32 24 6 -1 10 18 8 42 -2 24 8 63 23 86 15 22 21 47 15 54 -7 7 -6 28 3 48
8 20 17 41 18 46 1 6 14 30 27 55 14 25 20 45 14 45 -7 0 1 19 17 42 17 24 25
56 18 73 -6 17 4 42 24 56 19 15 37 52 40 83 7 79 18 114 41 131 13 9 12 14
-3 15 -36 0 -7 80 30 82 20 1 23 5 9 11 -16 6 -19 22 -8 43 56 111 71 154 66
187 -4 21 8 43 25 49 25 10 27 19 9 40 -17 20 -17 28 0 28 12 0 22 16 23 35 0
19 13 52 28 72 16 20 23 51 16 68 -6 18 4 42 26 58 20 15 26 27 13 27 -18 0
-19 11 -4 40 11 22 29 58 40 80 26 51 26 86 0 70 -27 -16 -26 16 1 43 63 63
-87 139 -274 140 -97 1 -234 8 -303 16 -281 34 -434 -34 -520 -229 -32 -72
-35 -82 -51 -150 -71 -314 -325 -1120 -372 -1180 -41 -54 -161 -7 -161 63 0 6
-32 48 -72 92 -63 70 -171 267 -177 325 -9 85 -39 204 -56 225 -11 14 -15 25
-9 25 6 0 -7 65 -30 144 -22 80 -42 154 -44 165 -2 12 -10 32 -19 46 -8 14
-10 33 -4 44 6 10 2 24 -10 32 -12 7 -17 25 -12 39 6 14 5 32 -2 39 -13 12
-25 58 -30 106 -1 14 -9 25 -18 25 -9 0 -17 18 -17 41 0 22 -13 45 -30 52 -16
6 -24 21 -17 34 8 13 6 17 -2 9 -9 -8 -35 -4 -59 9 -23 12 -114 25 -202 28
-88 2 -236 9 -330 14 -93 6 -188 6 -210 0z m761 -112 c11 -10 298 -964 503
-1670 181 -621 193 -651 214 -540 14 71 645 2194 655 2205 28 27 856 17 845
-10 -7 -16 -229 -672 -493 -1456 -451 -1336 -484 -1426 -523 -1416 -23 6 -277
12 -565 12 l-523 0 -13 55 c-11 42 -907 2715 -944 2815 -7 19 826 24 844 5z"/>
<path d="M1792 1543 c-8 -13 0 -37 17 -55 17 -17 31 -47 31 -67 0 -40 51 -69
85 -48 12 7 15 4 8 -8 -21 -34 42 -46 69 -13 13 16 36 25 51 20 14 -6 31 -1
38 9 7 11 5 18 -5 16 -9 -2 -32 4 -51 12 -20 9 -53 11 -75 5 -25 -6 -40 0 -40
16 0 15 -16 31 -35 36 -27 7 -25 10 9 12 24 1 48 10 54 19 6 10 -12 13 -40 8
-33 -7 -59 2 -76 26 -18 24 -30 28 -40 12z"/>
</g>
</svg>
